<svg version="1.1" id="Layer_1" xmlns="http://www.w3.org/2000/svg"
    xmlns:xlink="http://www.w3.org/1999/xlink" x="0px" y="0px"
    width="86.538px" height="84.719px" viewBox="103.885 183.781 86.538 84.719"
    enable-background="new 103.885 183.781 86.538 84.719" xml:space="preserve">
<g id="Layer_x0020_1">
	<g id="_1810875364352">
		<path d="M133.051,239.113c0-6.406,8.051-5.329,8.051-0.766C141.102,244.612,133.051,243.677,133.051,239.113z M119.558,237.214
			c0-5.272,8.249-5.726,8.249,0c0,4.337-6.208,5.471-7.823,1.616C119.898,238.604,119.558,237.384,119.558,237.214z
			 M151.419,236.676c-0.454-0.313-0.198-0.227-0.737-0.397c0.057-0.708,0.595-1.247,0.935-1.87c0.681,0.198,0.227,0.198,0.936,0.368
			C152.213,235.4,151.816,236.08,151.419,236.676z M148.783,234.776c-0.936-0.198-0.708-0.511-1.672-0.737
			c0.085-0.907,0.708-1.247,0.936-2.069c0.567,0.313,1.105,0.794,1.701,0.936C149.662,233.643,149.124,234.181,148.783,234.776z
			 M145.24,232.537c-0.624-0.312-1.105-0.624-1.701-0.936c0.17-0.624,0.794-1.36,1.134-1.871c0.482,0.255,1.191,0.709,1.502,1.105
			C146.005,231.573,145.608,231.998,145.24,232.537z M130.415,246.795c-0.907-0.085-0.482-0.198-2.041-0.198
			c0-2.948,1.871-14.031,1.871-17.433c1.729,0,1.219,0.113,2.239,0.198c-0.113,1.304-0.396,3.033-0.539,4.337L130.415,246.795z
			 M141.668,230.298c-0.425-0.313-1.134-0.794-1.672-0.936c0.227-0.992,0.708-1.021,0.935-1.899
			c0.567,0.142,1.304,0.652,1.871,0.936C142.462,229.051,142.065,229.702,141.668,230.298z M138.097,228.03
			c-0.539-0.369-1.105-0.737-1.672-1.105c0.312-0.596,0.793-1.134,0.935-1.701c0.851,0.085,1.304,0.538,1.871,0.936
			C138.862,226.867,138.494,227.321,138.097,228.03z M134.724,225.592c-0.709-0.057-1.248-0.595-1.871-0.936
			c0.369-0.708,0.765-1.162,1.134-1.87c0.567,0.368,1.134,0.736,1.672,1.134C135.375,224.486,134.894,225.025,134.724,225.592z
			 M130.981,223.353c-0.567-0.312-1.105-0.794-1.672-0.936c0.397-0.765,0.652-1.19,1.105-1.871c0.624,0.312,1.105,0.624,1.701,0.935
			C131.945,222.105,131.322,222.843,130.981,223.353z M127.41,221.113c-0.539-0.397-1.105-0.765-1.672-1.134
			c0.368-0.539,0.765-0.992,0.935-1.701c0.737,0.057,1.276,0.624,1.871,0.936C128.175,219.923,127.807,220.405,127.41,221.113z
			 M123.867,218.676l-0.765-0.397c0.17-0.624,0.793-1.361,1.134-1.871c0.454,0.312,0.198,0.227,0.737,0.369
			C124.916,217.513,124.32,218.335,123.867,218.676z M135.12,213.97l13.153,8.588c0.454,0.313,1.587,1.049,2.013,1.163
			c-0.397,0.765-0.652,1.19-1.105,1.87l-15.194-9.751C134.327,215.331,134.95,214.594,135.12,213.97z M138.664,208.726l14.995,9.751
			c-0.227,0.851-0.708,0.907-0.935,1.871c-0.709-0.369-1.134-0.737-1.814-1.163l-9.468-6.123c-1.275-0.851-2.523-1.729-3.883-2.466
			C137.728,209.973,138.323,209.236,138.664,208.726z M136.792,258.049c3.062,0,4.649-3.912,6.718-6.974
			c1.871-2.806,3.515-5.499,5.386-8.305c0.964-1.418,1.729-2.693,2.665-4.082l5.415-8.306c0.935-1.503,1.814-2.722,2.693-4.224
			l8.079-12.359c1.19-1.786,1.36-2.948,0.425-5.13c-1.559-3.543-4.677-11.083-6.236-14.202c-1.587-3.118-2.75-3.005-6.009-3.005
			c0,1.105,0.142,1.389,0.17,2.268c0.057,0.907,0,1.446,0.113,2.325l0.284,4.791c0.737,0.397,1.19,0.793,1.956,1.247
			c2.381,1.446,4.025,2.693,4.025,6.066c0,3.316-3.005,5.811-5.811,5.811c-2.608,0-6.605-3.09-8.873-4.621
			c-2.665-1.757-6.491-3.345-6.491-7.2c0-3.486,2.551-6.179,6.009-6.179c1.049,0,1.333,0.312,2.24,0.368
			c0-0.708,0.028-1.275-0.085-1.984c-0.113-0.822,0-1.389-0.085-2.154c-0.142-1.389-1.417-0.596-3.401-0.539
			c-8.561,0.255-6.293-1.048-11.168,6.265l-12.047,18.51c-0.567,0.907-1.19,1.758-1.701,2.608l-10.375,15.902
			c-3.685,5.896-0.454,6.633,4.337,9.808l5.216,3.402c0.964,0.566,1.672,1.077,2.608,1.7l10.687,6.945
			C134.525,257.453,135.233,258.049,136.792,258.049z"/>
		<path d="M150.853,183.979c0.028,0.822,0.198,0.879,0.198,1.871l0.936,14.626c-0.992-0.68-3.26-2.438-4.677-2.438
			c-3.458,0-5.981,4.535-1.729,7.341c1.162,0.794,2.268,1.474,3.401,2.211c1.587,1.077,5.783,4.138,7.313,4.138
			c3.515,0,4.819-3.26,3.628-5.527c-0.737-1.389-4.875-3.883-5.499-4.054c0-5.187-1.134-13.408-1.134-18.368
			C151.816,183.781,151.561,183.951,150.853,183.979z"/>
		<path d="M121.797,237.044c0,2.75,3.543,2.665,3.855,0.312C126.021,234.691,121.797,234.465,121.797,237.044z"/>
		<path d="M135.12,238.717c0,2.409,3.94,2.579,3.94,0c0-1.105-0.936-1.956-1.899-1.984
			C136.084,236.732,135.12,237.526,135.12,238.717z"/>
	</g>
</g>
</svg>