<svg version="1.1" id="Layer_1" xmlns="http://www.w3.org/2000/svg"
    xmlns:xlink="http://www.w3.org/1999/xlink" x="0px" y="0px"
    width="137.405px" height="128.245px" viewBox="0 0 137.405 128.245"
    enable-background="new 0 0 137.405 128.245"
    xml:space="preserve">
<g id="_1810867993376">
	<path d="M59.095,69.072c-6.966,0-12-1.476-17.074-5.905c-8.405-7.344-10.601-17.945-6.437-28.393
		c0.531-1.363,2.272-4.316,3.257-5.414c2.65-3.028,4.089-4.543,8.214-6.625c6.853-3.407,15.106-3.407,21.996,0
		c2.007,1.022,5.301,3.293,6.777,4.959c0.454,0.529,0.793,0.984,1.286,1.552c7.307,8.593,7.043,21.958,0.115,30.702
		c-1.174,1.477-1.895,1.969-2.953,2.954c-1.516,1.477-3.446,2.764-5.377,3.748C66.401,67.898,62.692,69.072,59.095,69.072z
		 M27.862,44.655c0,5.375,1.855,12.114,4.921,16.43c0.758,1.022,1.401,1.931,2.234,2.953c1.552,1.969,6.777,6.55,9.047,7.155
		c-0.454,0.645-0.454,0.417-1.363,0.72c-16.77,5.981-28.431,22.828-28.431,41.076c0,0.719,0.455,1.513,0.871,1.93
		c0.985,0.983,2.423,1.137,3.634,0.228c1.591-1.174,1.136-3.86,1.325-6.398c0.568-6.7,3.975-15.104,8.291-19.913
		c3.219-3.597,6.739-7.08,11.13-9.275c5.452-2.688,10.563-4.845,18.399-4.845c6.474,0,12.191,1.664,16.62,3.785
		c6.435,3.067,12.455,8.443,16.165,14.612c3.028,5.112,5.188,11.624,5.49,17.756c0.037,0.796-0.114,1.743,0.037,2.537
		c0.114,0.53,0.531,1.249,0.946,1.628c1.174,0.984,2.726,0.946,3.788-0.114c0.681-0.681,0.868-1.438,0.868-2.423
		c0-11.584-5.146-22.186-11.242-28.696c-0.832-0.907-0.645-0.946-2.082-2.348l-2.387-2.081c-3.482-2.84-6.965-4.959-11.055-6.777
		c-0.944-0.416-2.496-0.644-3.065-1.4c1.25-0.341,5.301-3.37,6.284-4.278c1.97-1.816,3.446-3.596,4.922-5.868
		c7.722-11.508,6.284-27.447-3.521-37.214c-5.301-5.3-12.001-9.237-20.141-9.237c-4.959,0-7.571,0.038-12.379,1.969
		c-5.3,2.12-6.209,3.217-9.996,6.398c-2.384,1.969-5.564,6.777-6.775,9.654C28.998,35.833,27.862,40.149,27.862,44.655z"/>
	<path d="M90.781,71.647c0,1.778,0.986,3.067,2.574,3.067h27.713c3.295,0,3.785-5.643-0.72-5.643H94.076
		C92.487,69.072,90.781,70.094,90.781,71.647z"/>
	<path d="M96.65,55.709h23.698c4.505,0,3.899-5.641,0.72-5.641H96.196c-2.499,0-3.634,3.143-1.818,4.846
		C94.871,55.406,95.742,55.709,96.65,55.709z"/>
	<path d="M95.969,36.439h25.099c3.144,0,4.127-5.641-1.174-5.641H97.37C91.803,30.798,93.128,36.439,95.969,36.439z"/>
	<path d="M105.357,93.946h14.991c4.468,0,4.09-5.642,0.72-5.642h-16.885C101.269,88.304,100.095,93.946,105.357,93.946z"/>
</g>
</svg>