<svg version="1.1" id="Layer_1" xmlns="http://www.w3.org/2000/svg"
    xmlns:xlink="http://www.w3.org/1999/xlink" x="0px" y="0px"
    width="137.405px" height="128.245px" viewBox="0 0 137.405 128.245"
    enable-background="new 0 0 137.405 128.245"
    xml:space="preserve">
<g id="_1810973727952">
	<path d="M110.564,101.139H26.999c-0.992,0-1.587-0.256-2.211-0.682c-0.737-0.48-1.021-0.736-1.417-1.502
		c0.793-1.162,18.142-18.255,21.005-21.117c2.069-2.041,1.899-2.608,4.422-2.608c1.049,0,7.37,6.774,8.901,8.306
		c3.458,3.43,3.968,3.231,7.058-0.596L80.091,64.6c1.021-1.248,1.984-2.466,3.062-3.713c2.183-2.523,1.956-3.09,4.394-3.09
		c0.964,0,5.924,6.066,7.2,7.568c0.397,0.454,0.34,0.51,0.737,0.963c0.396,0.426,0.538,0.511,0.936,1.021
		c0.651,0.822,0.992,1.133,1.644,1.955l5.188,5.981c0.425,0.454,0.397,0.511,0.737,0.936c1.304,1.616,11.168,12.528,11.168,13.294
		v7.03C115.156,98.928,112.945,101.139,110.564,101.139z M60.929,79.114c-4.536-3.033-6.52-9.213-13.096-9.213
		c-3.713,0-5.527,2.494-7.455,4.422c-2.324,2.324-16.81,17.093-17.972,17.858V40.59c0-4.563-1.36-11.622,5.584-11.622H109.6
		c2.183,0,3.798,0.907,4.733,2.268c1.219,1.757,0.822,3.713,0.822,6.463v43.342l-14.57-16.895
		c-2.098-2.353-7.625-9.779-10.289-11.027c-2.523-1.19-6.322-0.793-8.391,1.219l-7.484,8.731
		c-3.826,4.365-8.135,10.063-11.876,14.287C61.95,78.008,61.609,78.631,60.929,79.114z M17.077,34.071v61.994
		c0,3.09,1.275,5.441,2.806,7.115c1.729,1.842,4.224,3.287,6.888,3.287h83.792c5.301,0,9.921-4.62,9.921-9.921V33.334
		c0-5.357-4.903-9.695-11.622-9.695H28.699c-4.847,0-8.646,2.013-10.573,5.896C17.559,30.669,17.077,32.455,17.077,34.071z"/>
	<path d="M37.912,49.803c0-6.973,10.177-7.001,10.177,0C48.088,56.209,37.912,56.209,37.912,49.803z M32.583,49.548
		c0,3.09,1.248,5.471,2.807,7.144c0.028,0.028,0.085,0.085,0.113,0.113l2.75,2.098c2.551,1.417,6.747,1.446,9.326,0.085l2.891-2.183
		c2.977-3.062,3.742-7.2,2.013-11.396c-0.425-1.049-1.417-2.438-2.154-3.175c-0.822-0.85-1.899-1.502-3.062-2.041
		C40.378,36.991,32.583,42.206,32.583,49.548z"/>
</g>
</svg>