<?xml version="1.0" encoding="utf-8"?>
<!-- Generator: Adobe Illustrator 16.0.0, SVG Export Plug-In . SVG Version: 6.00 Build 0)  -->
<!DOCTYPE svg PUBLIC "-//W3C//DTD SVG 1.1//EN" "http://www.w3.org/Graphics/SVG/1.1/DTD/svg11.dtd">
<svg version="1.1" id="Layer_1" xmlns="http://www.w3.org/2000/svg" xmlns:xlink="http://www.w3.org/1999/xlink" x="0px" y="0px"
	 width="137.405px" height="128.245px" viewBox="0 0 137.405 128.245" enable-background="new 0 0 137.405 128.245"
	 xml:space="preserve">
<g id="Layer_x0020_1">
	<path fill="#8D62B3" d="M19.126,53.558c0-3.424,4.253-2.841,7.724-2.841l21.56,0.016c2.764,0,4.299-0.399,6.204-1.919
		c3.639-2.902,5.251-11.179,7.232-17.152l3.839-12.008c1.274-3.854,4.821-3.532,5.942-0.307L78.2,39.584
		c1.566,4.653,2.549,11.102,10.396,11.148l21.56-0.016c3.531,0,8.122-0.691,8.122,2.841c0,2.211-4.959,5.021-6.679,6.327
		c-2.549,1.935-16.999,11.84-18.458,14.051c-3.041,4.653-1.367,7.586,0.307,12.593c1.183,3.577,6.957,20.914,6.957,22.296
		c0,1.551-1.214,2.441-2.841,2.441c-1.751,0-2.258-0.921-3.501-1.797c-1.29-0.906-2.059-1.458-3.303-2.396L74.284,95.111
		c-3.255-2.381-7.693-2.457-10.933-0.169c-1.137,0.799-2.15,1.521-3.302,2.38c-2.257,1.705-4.238,3.164-6.557,4.822
		c-1.766,1.274-11.655,9.121-13.636,9.121c-5.129,0-1.551-7.34-0.768-9.705c1.352-4.022,6.864-19.608,6.864-22.804
		c0-3.992-2.718-6.188-5.113-7.893c-2.611-1.873-4.976-3.746-7.494-5.512c-2.549-1.797-4.96-3.517-7.54-5.467
		C24.086,58.579,19.126,55.769,19.126,53.558z M13.03,53.957c0,3.854,2.518,6.111,4.822,7.785
		c2.733,1.997,22.004,15.111,22.004,17.014L35.327,93.33c-1.229,3.686-4.408,11.993-4.408,15.494c0,5.145,3.901,8.537,9.751,8.537
		c3.901,0,13.652-8.292,17.414-11.041l6.618-4.76c5.083-3.777,4.976-2.181,14.404,4.592c3.777,2.718,13.912,11.209,17.645,11.209
		c6.019,0,9.751-3.224,9.751-9.351c0-2.15-5.56-18.074-6.665-21.376c-3.302-9.936-4.976-7.386,11.946-19.257l7.479-5.512
		c2.718-2.042,5.113-3.916,5.113-8.308c0-3.501-2.287-6.373-4.468-7.724c-5.481-3.409-31.557,1.105-33.998-2.58l-6.081-18.289
		c-2.856-8.569-2.856-14.082-11.932-14.082c-7.371,0-8.369,8.292-10.318,14.082l-6.082,18.289c-1.49,2.257-7.386,1.367-10.826,1.367
		c-4.929,0-19.793-0.814-23.172,1.213C14.995,47.354,13.03,49.934,13.03,53.957z"/>
</g>
</svg>
